# xmcd
#
# Track frame offsets:
#	150
#	26425
#	51475
#	74475
#	93875
#	112625
#	154250
#	174525
#	197125
#	208750
#	242975
#	266300
#	285075
#	307125
#
# Disc length: 4441 seconds
#
# Revision: 3
# Processed by: cddbd v1.4PL0 Copyright (c) Steve Scherf et al.
# Submitted via: audiograbber 1.81.03
#
DISCID=c211570e
DTITLE=Arny Kay Band - Walkin On Thin Ice
DYEAR=1998
DGENRE=Blues
TTITLE0=I Want Your Love
TTITLE1=Walkin On Thin Ice
TTITLE2=My Way
TTITLE3=Rock'n'roll Boogaloo
TTITLE4=Crosstown Traffic
TTITLE5=Stone Crazy
TTITLE6=Nightmare Blues
TTITLE7=Keep A Drivin
TTITLE8=Big Road Blues
TTITLE9=Leavin Blues
TTITLE10=Love Me
TTITLE11=Big Star
TTITLE12=Memories Of Blind Willie Johnson And Tampa Red
TTITLE13=Chicago O'hare
EXTD=
EXTT0=
EXTT1=
EXTT2=
EXTT3=
EXTT4=
EXTT5=
EXTT6=
EXTT7=
EXTT8=
EXTT9=
EXTT10=
EXTT11=
EXTT12=
EXTT13=
PLAYORDER=
